# xmcd CD database file
#
# Track frame offsets:
#	150
#	8309
#	18227
#	27173
#	36362
#	45688
#	53698
#	61984
#	70237
#	80993
#	90100
#	99524
#
# Disc length: 1442 seconds
#
# Revision: 1
# Processed by: cddbd v1.5.1PL0 Copyright (c) Steve Scherf et al.
# Submitted via: jetAudio 5
#
DISCID=8705a00c
DTITLE=Joann Castle - Ragtime Melodies
DYEAR=1900
DGENRE=
TTITLE0=The Yellow Rose Of Texas
TTITLE1=Red River Valley
TTITLE2=Pistol Packin' Mama
TTITLE3=Maple Leaf Rag
TTITLE4=Frog Legs Rag
TTITLE5=I Want A Girl
TTITLE6=Skater's Boogie
TTITLE7=Honky Tonk Twist
TTITLE8=While Strolling Through The Park One Day
TTITLE9=Busy Signal
TTITLE10=When My Baby Smiles At Me
TTITLE11=Bring Back The Old Hurdy Gurdy
EXTD=
EXTT0=
EXTT1=
EXTT2=
EXTT3=
EXTT4=
EXTT5=
EXTT6=
EXTT7=
EXTT8=
EXTT9=
EXTT10=
EXTT11=
PLAYORDER=
